# xmcd
#
# Track frame offsets: 
#        150
#        13365
#        36920
#        62465
#        81970
#        94505
#        115275
#        140870
#        154205
#        174895
#
# Disc length: 2526 seconds
#
# Revision: 0
# Processed by: cddbd v1.5.2PL0 Copyright (c) Steve Scherf et al.
# Submitted via: ExactAudioCopy v0.99pb1
#
DISCID=8109dc0a
DTITLE=Dirty Blues Band - Stone Dirt
DYEAR=1968
DGENRE=Blues
TTITLE0=Bring It On Home
TTITLE1=It's My Own Fault Baby
TTITLE2=I Can't Quit You Baby
TTITLE3=Tell Me
TTITLE4=She's The One
TTITLE5=My Baby
TTITLE6=Sittin' Down Wonerin'
TTITLE7=Six Sides
TTITLE8=You've Got To Love Her With A Feeling
TTITLE9=Gone Too Long
EXTD=
EXTT0=
EXTT1=
EXTT2=
EXTT3=
EXTT4=
EXTT5=
EXTT6=
EXTT7=
EXTT8=
EXTT9=
PLAYORDER=
